<?xml version="1.0" encoding="UTF-8"?>
<svg version="1.1" xmlns="http://www.w3.org/2000/svg" width="512" height="512">
<path d="M0 0 C2.1907503 -0.13211032 4.37763356 -0.21821079 6.57128906 -0.28417969 C8.46814453 -0.34412109 8.46814453 -0.34412109 10.40332031 -0.40527344 C14.77324312 0.32219916 16.0446086 1.70127752 18.75878906 5.15332031 C19.02372169 8.33870125 19.02372169 8.33870125 18.51651001 12.01028442 C18.39012156 13.02938047 18.39012156 13.02938047 18.2611798 14.06906432 C18.07477263 15.55815664 17.87652683 17.04580267 17.66803646 18.53196394 C17.09059504 22.69206372 16.61995627 26.86490174 16.13357544 31.03645325 C16.02717798 31.93038094 15.92078052 32.82430862 15.8111589 33.74532503 C13.56756354 52.85292743 12.36651386 72.06965784 11.38378906 91.27832031 C11.32914616 92.33645164 11.27450325 93.39458297 11.2182045 94.48477888 C8.55176733 148.23775506 11.6697165 193.20336368 48.93847656 234.54003906 C60.35692636 247.09026522 72.58996741 258.69231326 85.25878906 269.96582031 C86.04016267 270.66207677 86.82153627 271.35833323 87.62658787 272.07568836 C101.63831676 284.52671351 115.87087795 296.71771658 130.69992065 308.18840027 C131.37979495 308.71627593 132.05966924 309.24415158 132.76014578 309.78802347 C135.92847749 312.24321133 139.11080069 314.67311769 142.33193398 317.05864143 C143.44561569 317.90644705 144.55898959 318.75465722 145.67199707 319.60334778 C146.63581551 320.31875638 147.59963394 321.03416498 148.592659 321.77125263 C151.39452399 324.85243051 151.59207563 327.05211379 151.75878906 331.15332031 C150.71410251 334.3655918 149.00469078 336.07377519 146.44628906 338.21582031 C145.72957031 338.81910156 145.01285156 339.42238281 144.27441406 340.04394531 C143.44425781 340.74003906 142.61410156 341.43613281 141.75878906 342.15332031 C140.80488281 342.99378906 139.85097656 343.83425781 138.86816406 344.70019531 C115.04806097 365.59141324 86.45485929 379.63825092 55.75878906 387.15332031 C55.09169922 387.32057617 54.42460937 387.48783203 53.73730469 387.66015625 C32.22518034 392.88645605 4.25593465 395.77510333 -17.24121094 389.15332031 C-19.84883778 386.30863649 -20.27330689 384.93967104 -20.11621094 381.09082031 C-19.23388339 378.1287207 -18.13854662 376.53780975 -16.24121094 374.15332031 C-17.01207031 374.09273438 -17.78292969 374.03214844 -18.57714844 373.96972656 C-19.58003906 373.8859375 -20.58292969 373.80214844 -21.61621094 373.71582031 C-22.61394531 373.63460938 -23.61167969 373.55339844 -24.63964844 373.46972656 C-27.24121094 373.15332031 -27.24121094 373.15332031 -29.24121094 372.15332031 C-29.22026367 372.83845703 -29.19931641 373.52359375 -29.17773438 374.22949219 C-29.09395695 377.37061554 -29.0423568 380.51150295 -28.99121094 383.65332031 C-28.9409375 385.26980469 -28.9409375 385.26980469 -28.88964844 386.91894531 C-28.7919955 394.92648611 -30.09053242 400.0038253 -34.91699219 406.36035156 C-35.45710937 406.89015625 -35.99722656 407.41996094 -36.55371094 407.96582031 C-37.08609375 408.50851562 -37.61847656 409.05121094 -38.16699219 409.61035156 C-45.4594823 415.03508526 -52.8209563 414.5883994 -61.58666992 414.55737305 C-63.04268923 414.56308137 -64.49870407 414.57004742 -65.95471191 414.57817078 C-69.89485644 414.59606626 -73.83477783 414.59494067 -77.77495074 414.58922839 C-81.07010938 414.58613132 -84.36522547 414.59223474 -87.66037804 414.59826714 C-95.43678889 414.61229887 -103.21308985 414.61076234 -110.98950195 414.59936523 C-118.99950816 414.58788486 -127.00917952 414.60196127 -135.01914161 414.62876171 C-141.90854666 414.65094583 -148.7978468 414.65755001 -155.68728501 414.6516853 C-159.79664988 414.64832104 -163.90580013 414.65069528 -168.01513481 414.66793633 C-171.88045719 414.68344685 -175.74528494 414.67940495 -179.61058807 414.66063118 C-181.02467062 414.65695661 -182.43879015 414.66002068 -183.85283852 414.67051697 C-193.34630588 414.73557648 -199.61589849 414.14790834 -206.99121094 407.77832031 C-213.88892956 399.73098192 -214.50068082 393.96723258 -214.59130859 383.65893555 C-214.60776135 382.29255005 -214.63490881 380.92624675 -214.67333984 379.56030273 C-214.90161977 371.38688881 -214.7232388 365.22899044 -210.12646484 358.28637695 C-208.97931409 356.14129399 -208.97931409 356.14129399 -209.90673828 353.7565918 C-210.85085723 351.91481714 -211.83223248 350.09191967 -212.83911133 348.28369141 C-215.18923353 343.03673566 -214.72203399 337.54400085 -214.68725586 331.89550781 C-214.67875945 329.79034115 -214.70752197 327.68790619 -214.73925781 325.58300781 C-214.78641315 316.83591894 -214.20128849 310.76660653 -208.34667969 303.94628906 C-207.71375 303.41648437 -207.08082031 302.88667969 -206.42871094 302.34082031 C-205.80351562 301.798125 -205.17832031 301.25542969 -204.53417969 300.69628906 C-198.20114004 296.43470361 -192.77872026 295.66477493 -185.30371094 295.46582031 C-184.42908203 295.43166016 -183.55445313 295.3975 -182.65332031 295.36230469 C-180.51637839 295.28056374 -178.37881876 295.21524901 -176.24121094 295.15332031 C-177.13582031 294.43789063 -178.03042969 293.72246094 -178.95214844 292.98535156 C-198.14260826 277.3128764 -209.98947517 257.73678397 -214.24121094 233.15332031 C-215.15800156 218.21532362 -215.34138397 203.35380208 -210.24121094 189.15332031 C-209.68046875 187.56777344 -209.68046875 187.56777344 -209.10839844 185.95019531 C-201.01839489 165.05548417 -186.6806234 147.93334564 -166.74121094 137.65332031 C-161.6509457 135.0246197 -158.43671954 133.16584395 -156.24121094 127.59082031 C-155.54484539 125.15578028 -155.54484539 125.15578028 -155.24121094 123.15332031 C-156.84996094 123.24613281 -156.84996094 123.24613281 -158.49121094 123.34082031 C-162.24121094 123.15332031 -162.24121094 123.15332031 -164.61621094 122.02832031 C-166.90254976 119.39023706 -167.04192027 117.6348063 -167.24121094 114.15332031 C-166.25881382 111.4922927 -165.26297416 109.24815922 -163.92871094 106.77832031 C-163.38283325 105.73611328 -163.38283325 105.73611328 -162.82592773 104.67285156 C-155.36158676 90.66242082 -146.6278732 78.15320372 -136.24121094 66.15332031 C-135.72236328 65.55326172 -135.20351562 64.95320313 -134.66894531 64.33496094 C-128.08792563 56.80065505 -121.16673319 50.29413237 -113.24121094 44.15332031 C-112.44328125 43.48945312 -111.64535156 42.82558594 -110.82324219 42.14160156 C-79.68055186 16.28249981 -40.04100007 2.73918824 0 0 Z " fill="#537CBE" transform="translate(230.2412109375,63.8466796875)"/>
<path d="M0 0 C15.14398592 13.45682362 25.28062935 29.70227969 30.5625 49.1875 C30.80742187 50.07179688 31.05234375 50.95609375 31.3046875 51.8671875 C36.24623971 73.59647871 31.69732817 98.47046438 20.625 117.625 C17.56617295 122.38052018 14.1559641 126.82626934 10.5625 131.1875 C9.74652344 132.20650391 9.74652344 132.20650391 8.9140625 133.24609375 C4.39944215 138.68271404 -0.81421636 142.93326529 -6.4375 147.1875 C-5.33792969 147.21328125 -4.23835937 147.2390625 -3.10546875 147.265625 C7.30540005 147.61713632 17.38845685 148.0148419 25.5 155.375 C32.36403881 163.39800323 33.22185785 171.30679033 33.125 181.625 C33.14884766 182.78837891 33.17269531 183.95175781 33.19726562 185.15039062 C33.18544198 192.15393051 32.27936384 197.05946039 28.63647461 203.08618164 C27.25909992 205.3878161 27.25909992 205.3878161 27.5625 209.1875 C28.32990993 210.66230872 29.15931264 212.10551623 30.02734375 213.5234375 C33.46990095 220.1556194 33.26348473 226.47655223 33.125 233.8125 C33.13595703 235.08351563 33.14691406 236.35453125 33.15820312 237.6640625 C33.09156109 246.19424324 32.10120597 251.5269665 26.88671875 258.39453125 C26.34660156 258.92433594 25.80648437 259.45414062 25.25 260 C24.71761719 260.54269531 24.18523437 261.08539063 23.63671875 261.64453125 C16.34422864 267.06926495 8.98275463 266.62257909 0.21704102 266.59155273 C-1.2389783 266.59726106 -2.69499314 266.60422711 -4.15100098 266.61235046 C-8.09114551 266.63024595 -12.03106689 266.62912036 -15.97123981 266.62340808 C-19.26639844 266.62031101 -22.56151453 266.62641443 -25.8566671 266.63244683 C-33.63307795 266.64647856 -41.40937891 266.64494202 -49.18579102 266.63354492 C-57.19579723 266.62206455 -65.20546858 266.63614096 -73.21543068 266.6629414 C-80.10483572 266.68512551 -86.99413586 266.69172969 -93.88357407 266.68586498 C-97.99293894 266.68250073 -102.10208919 266.68487497 -106.21142387 266.70211601 C-110.07674625 266.71762653 -113.94157401 266.71358464 -117.80687714 266.69481087 C-119.22095968 266.6911363 -120.63507921 266.69420036 -122.04912758 266.70469666 C-131.54259494 266.76975616 -137.81218755 266.18208803 -145.1875 259.8125 C-152.08521862 251.76516161 -152.69696988 246.00141227 -152.78759766 235.69311523 C-152.80405042 234.32672974 -152.83119787 232.96042644 -152.86962891 231.59448242 C-153.09790883 223.42106849 -152.91952787 217.26317013 -148.32275391 210.32055664 C-147.17560315 208.17547367 -147.17560315 208.17547367 -148.10302734 205.79077148 C-149.04714629 203.94899682 -150.02852154 202.12609936 -151.03540039 200.31787109 C-153.38552259 195.07091535 -152.91832305 189.57818053 -152.88354492 183.9296875 C-152.87504852 181.82452084 -152.90381103 179.72208588 -152.93554688 177.6171875 C-152.98270222 168.87009863 -152.39757755 162.80078622 -146.54296875 155.98046875 C-145.91003906 155.45066406 -145.27710938 154.92085937 -144.625 154.375 C-143.68720703 153.56095703 -143.68720703 153.56095703 -142.73046875 152.73046875 C-136.3974291 148.46888329 -130.97500932 147.69895462 -123.5 147.5 C-122.62537109 147.46583984 -121.75074219 147.43167969 -120.84960938 147.39648438 C-118.71266746 147.31474343 -116.57510782 147.2494287 -114.4375 147.1875 C-115.77941406 146.11435547 -115.77941406 146.11435547 -117.1484375 145.01953125 C-136.33889732 129.34705609 -148.18576424 109.77096366 -152.4375 85.1875 C-153.35429062 70.24950331 -153.53767303 55.38798177 -148.4375 41.1875 C-148.06367188 40.13046875 -147.68984375 39.0734375 -147.3046875 37.984375 C-138.58754565 15.46990268 -121.69952321 -3.89553585 -99.4375 -13.8125 C-65.99645506 -27.06697104 -27.94700657 -23.73786555 0 0 Z " fill="#010100" transform="translate(168.4375,211.8125)"/>
<path d="M0 0 C38.34980135 12.8653921 72.73318518 37.45602851 96.57666016 70.21826172 C96.98980469 70.78174316 97.40294922 71.34522461 97.82861328 71.92578125 C120.24842627 102.89958786 132.22857576 139.29343779 134.38916016 177.28076172 C134.45458008 178.28155762 134.52 179.28235352 134.58740234 180.31347656 C135.00445935 189.28324641 135.00445935 189.28324641 131.57666016 193.21826172 C128.51688439 194.7481496 125.31769596 194.36625789 121.96011353 194.36543274 C121.16493423 194.36910943 120.36975493 194.37278612 119.55047929 194.37657422 C116.87121153 194.38763605 114.19198252 194.39145909 111.51269531 194.39526367 C109.59773128 194.40152634 107.68276847 194.40817296 105.76780701 194.41517639 C100.55501743 194.43260219 95.34223703 194.44314204 90.12942553 194.45138192 C86.87533819 194.45652776 83.62125373 194.46260362 80.36716843 194.46889305 C70.19355332 194.48794785 60.0199455 194.50217948 49.84631598 194.51050502 C38.08792574 194.52028544 26.32972335 194.54662479 14.57139933 194.58700591 C5.49196446 194.61712131 -3.58741641 194.63196946 -12.66690028 194.63528603 C-18.09413325 194.63764138 -23.52116561 194.64666484 -28.94834518 194.67174721 C-34.05206652 194.69495353 -39.15545407 194.69929124 -44.2592144 194.68898582 C-46.1345639 194.68848857 -48.00992942 194.69486461 -49.88522911 194.70854187 C-52.44149927 194.72614573 -54.99655652 194.7192122 -57.55282593 194.70600891 C-58.29854524 194.71697816 -59.04426455 194.7279474 -59.81258142 194.73924905 C-63.04019933 194.69887569 -65.12652353 194.40399119 -67.88350105 192.6788435 C-70.00803904 189.28394301 -69.97782243 186.24428245 -69.93127441 182.36120605 C-69.93751438 181.56431791 -69.94375434 180.76742976 -69.95018339 179.94639349 C-69.96615312 177.27304442 -69.95349392 174.60060212 -69.94091797 171.92724609 C-69.94633733 170.0119829 -69.95345894 168.09672388 -69.9621582 166.18147278 C-69.9804166 160.97695792 -69.9733136 155.77275971 -69.96064186 150.56823921 C-69.95052725 145.12617249 -69.95990326 139.6841332 -69.96618652 134.24206543 C-69.97346741 125.10240807 -69.96386362 115.96287993 -69.94482422 106.82324219 C-69.92305468 96.25082402 -69.93010574 85.67871438 -69.95212984 75.10630369 C-69.97027123 66.03529577 -69.97284832 56.96438082 -69.96237516 47.89336061 C-69.95613331 42.47289757 -69.95532363 37.05257963 -69.96852112 31.63212585 C-69.98006062 26.53653684 -69.97208858 21.44134629 -69.94894409 16.3458004 C-69.94364684 14.47369232 -69.94518808 12.60155081 -69.95399475 10.72945595 C-69.96489391 8.17762095 -69.95125569 5.6270701 -69.93127441 3.07531738 C-69.94465874 1.95878477 -69.94465874 1.95878477 -69.95831347 0.81969595 C-69.90560518 -2.64042625 -69.68329753 -4.45063785 -67.51659393 -7.21030426 C-53.42730924 -17.78731993 -15.55367547 -5.01741576 0 0 Z " fill="#E94234" transform="translate(333.42333984375,42.78173828125)"/>
<path d="M0 0 C16.31517877 12.82352268 27.15221657 31.09752117 29.94140625 51.78515625 C31.86777993 72.47786604 27.05086215 91.86664465 14.56640625 108.66015625 C13.3841344 110.05762815 12.17437808 111.4322058 10.94140625 112.78515625 C10.22597656 113.59210938 9.51054687 114.3990625 8.7734375 115.23046875 C-1.33968495 126.01999906 -12.91315604 132.68001174 -27.05859375 136.78515625 C-28.25742188 137.14867187 -29.45625 137.5121875 -30.69140625 137.88671875 C-45.69172413 141.52288765 -63.00404586 139.90282887 -77.05859375 133.78515625 C-78.15300781 133.3159375 -79.24742188 132.84671875 -80.375 132.36328125 C-86.96942413 129.29303622 -92.50823612 125.45129184 -98.05859375 120.78515625 C-98.85652344 120.18574219 -99.65445313 119.58632813 -100.4765625 118.96875 C-114.69079585 106.94793844 -123.6381002 87.6685743 -125.28173828 69.29003906 C-126.6907432 45.57105347 -119.73198479 25.7528033 -104.05859375 7.78515625 C-76.08876084 -21.29959201 -31.94650411 -23.13367539 0 0 Z " fill="#E0AA24" transform="translate(156.05859375,221.21484375)"/>
<path d="M0 0 C0.79688815 -0.00623996 1.59377629 -0.01247993 2.41481256 -0.01890898 C5.08816164 -0.0348787 7.76060394 -0.0222195 10.43395996 -0.00964355 C12.34922315 -0.01506291 14.26448217 -0.02218452 16.17973328 -0.03088379 C21.38424813 -0.04914218 26.58844635 -0.04203919 31.79296684 -0.02936745 C37.23503357 -0.01925283 42.67707286 -0.02862884 48.11914062 -0.03491211 C57.25879798 -0.042193 66.39832612 -0.0325892 75.53796387 -0.0135498 C86.11038204 0.00821973 96.68249167 0.00116868 107.25490236 -0.02085543 C116.32591029 -0.03899682 125.39682524 -0.04157391 134.46784544 -0.03110075 C139.88830849 -0.0248589 145.30862643 -0.02404922 150.7290802 -0.0372467 C155.82466922 -0.04878621 160.91985977 -0.04081417 166.01540565 -0.01766968 C167.88751373 -0.01237243 169.75965525 -0.01391366 171.63175011 -0.02272034 C174.1835851 -0.0336195 176.73413595 -0.01998128 179.28588867 0 C180.40242128 -0.01338433 180.40242128 -0.01338433 181.54151011 -0.02703905 C184.99741503 0.02560499 186.82483668 0.26347548 189.60166168 2.39740753 C191.43777278 4.91165247 191.65743039 6.21425697 191.67419434 9.30480957 C191.68241211 10.25122314 191.69062988 11.19763672 191.69909668 12.17272949 C191.67130127 13.69990601 191.67130127 13.69990601 191.64294434 15.25793457 C191.63085938 16.3205249 191.61877441 17.38311523 191.60632324 18.47790527 C190.44888422 66.10476742 168.89712293 111.96257649 135.95153809 145.83996582 C133.10598054 148.54304761 132.01193962 149.50793457 128.14294434 149.50793457 C123.55782076 148.17492932 120.73330272 145.51786806 117.46124268 142.19372559 C116.63509881 141.37248498 116.63509881 141.37248498 115.79226518 140.53465366 C113.95111166 138.70077515 112.12086827 136.85638543 110.29040527 135.01184082 C108.97174673 133.69397321 107.65243498 132.3767589 106.33251953 131.06015015 C102.75163293 127.48439765 99.1801527 123.89938256 95.61040783 120.31251144 C91.87634631 116.56341999 88.13418671 112.82242853 84.39300537 109.08044434 C78.11353818 102.79728481 71.83973591 96.508515 65.56970215 90.21594238 C57.51373587 82.13107706 49.44850532 74.05551997 41.38030624 65.98286438 C34.45157713 59.05015974 27.52711545 52.11319728 20.60333729 45.17554855 C18.37334469 42.94145261 16.14276228 40.70794684 13.91210175 38.47451782 C10.41305637 34.97058837 6.91667651 31.46402022 3.42237854 27.9553566 C2.13683959 26.66528563 0.8504487 25.37606297 -0.43683624 24.08773422 C-2.18798741 22.3348439 -3.93604156 20.57892421 -5.68328857 18.82214355 C-6.19835221 18.30794641 -6.71341584 17.79374926 -7.24408746 17.26397038 C-10.38318535 14.09897989 -11.7513131 12.64995422 -12.16955566 8.13293457 C-11.85705566 4.50793457 -11.85705566 4.50793457 -10.32859039 2.31311798 C-6.96108194 -0.14647538 -4.01396244 -0.048117 0 0 Z " fill="#40B65C" transform="translate(289.8570556640625,251.4920654296875)"/>
<path d="M0 0 C2.1907503 -0.13211032 4.37763356 -0.21821079 6.57128906 -0.28417969 C8.46814453 -0.34412109 8.46814453 -0.34412109 10.40332031 -0.40527344 C14.77324312 0.32219916 16.0446086 1.70127752 18.75878906 5.15332031 C19.02372169 8.33870125 19.02372169 8.33870125 18.51651001 12.01028442 C18.39012156 13.02938047 18.39012156 13.02938047 18.2611798 14.06906432 C18.07477263 15.55815664 17.87652683 17.04580267 17.66803646 18.53196394 C17.09059504 22.69206372 16.61995627 26.86490174 16.13357544 31.03645325 C16.02717798 31.93038094 15.92078052 32.82430862 15.8111589 33.74532503 C13.56756354 52.85292743 12.36651386 72.06965784 11.38378906 91.27832031 C11.32914616 92.33645164 11.27450325 93.39458297 11.2182045 94.48477888 C8.55176733 148.23775506 11.6697165 193.20336368 48.93847656 234.54003906 C60.35692636 247.09026522 72.58996741 258.69231326 85.25878906 269.96582031 C86.04016267 270.66207677 86.82153627 271.35833323 87.62658787 272.07568836 C101.63831676 284.52671351 115.87087795 296.71771658 130.69992065 308.18840027 C131.37979495 308.71627593 132.05966924 309.24415158 132.76014578 309.78802347 C135.92847749 312.24321133 139.11080069 314.67311769 142.33193398 317.05864143 C143.44561569 317.90644705 144.55898959 318.75465722 145.67199707 319.60334778 C146.63581551 320.31875638 147.59963394 321.03416498 148.592659 321.77125263 C151.39452399 324.85243051 151.59207563 327.05211379 151.75878906 331.15332031 C150.71410251 334.3655918 149.00469078 336.07377519 146.44628906 338.21582031 C145.72957031 338.81910156 145.01285156 339.42238281 144.27441406 340.04394531 C143.44425781 340.74003906 142.61410156 341.43613281 141.75878906 342.15332031 C140.80488281 342.99378906 139.85097656 343.83425781 138.86816406 344.70019531 C115.04806097 365.59141324 86.45485929 379.63825092 55.75878906 387.15332031 C55.09169922 387.32057617 54.42460937 387.48783203 53.73730469 387.66015625 C32.22518034 392.88645605 4.25593465 395.77510333 -17.24121094 389.15332031 C-19.87218925 386.28316215 -20.27159918 384.91302627 -20.11621094 381.02832031 C-19.17653261 377.9408058 -18.84974595 376.96818477 -16.24121094 375.15332031 C-13.65337528 374.92635037 -11.31277327 374.87540077 -8.73339844 374.96582031 C-7.18604169 374.99208723 -5.63867804 375.01794963 -4.09130859 375.04345703 C-2.87353729 375.07146393 -2.87353729 375.07146393 -1.63116455 375.10003662 C49.16002598 376.17613684 92.91204703 361.97485338 131.75878906 329.15332031 C126.25277091 322.44626167 120.12873963 316.39652484 113.98608398 310.28295898 C112.79449525 309.09329193 111.60313585 307.90339515 110.4119873 306.71328735 C107.85818056 304.16262852 105.30283197 301.61352829 102.74626732 299.06563377 C98.70596009 295.03889136 94.669508 291.00829929 90.63362122 286.97712708 C82.07413998 278.42872125 73.51042238 269.88456511 64.94628906 261.34082031 C55.68270026 252.09925293 46.41984647 242.85695582 37.16184312 233.60979253 C33.14682271 229.59976284 29.12937482 225.59218572 25.11007059 221.58644998 C22.61739366 219.10120976 20.12676994 216.61391982 17.63671112 214.12605667 C16.47857926 212.96980323 15.31958017 211.81441771 14.15966988 210.65994835 C12.58158065 209.08903185 11.00656421 207.51509839 9.43229675 205.94035339 C8.54871585 205.0589931 7.66513494 204.17763281 6.75477886 203.26956463 C3.34037559 199.64945018 3.61896278 196.71059554 3.63853455 191.96542358 C3.63768012 191.21642465 3.6368257 190.46742572 3.63594538 189.69572985 C3.63429146 187.1729431 3.63981052 184.65022208 3.64526367 182.12744141 C3.64554559 180.32421368 3.64538772 178.52098584 3.64482117 176.71775818 C3.64453337 171.81099832 3.65042729 166.90426273 3.65739512 161.99750853 C3.66363156 156.8738794 3.66423269 151.75024977 3.66542053 146.62661743 C3.66853299 136.91916201 3.67674524 127.21171781 3.68677002 117.50426733 C3.6979338 106.45485592 3.70344228 95.40544397 3.70846546 84.35602832 C3.71892791 61.62178609 3.73652571 38.88755383 3.75878906 16.15332031 C-0.04912196 16.61186102 -3.85615718 17.07732541 -7.66308594 17.54394531 C-8.73026855 17.67236816 -9.79745117 17.80079102 -10.89697266 17.93310547 C-50.29306492 22.78602885 -85.47885768 39.89756651 -114.24121094 67.15332031 C-115.13582031 67.99507813 -116.03042969 68.83683594 -116.95214844 69.70410156 C-131.57573034 83.8566157 -141.82339396 100.78273977 -151.64746094 118.45800781 C-153.24121094 121.15332031 -153.24121094 121.15332031 -155.24121094 123.15332031 C-158.80848527 123.48362349 -161.34897103 123.57596027 -164.61621094 122.02832031 C-166.90254976 119.39023706 -167.04192027 117.6348063 -167.24121094 114.15332031 C-166.25881382 111.4922927 -165.26297416 109.24815922 -163.92871094 106.77832031 C-163.56479248 106.08351563 -163.20087402 105.38871094 -162.82592773 104.67285156 C-155.36158676 90.66242082 -146.6278732 78.15320372 -136.24121094 66.15332031 C-135.72236328 65.55326172 -135.20351562 64.95320313 -134.66894531 64.33496094 C-128.08792563 56.80065505 -121.16673319 50.29413237 -113.24121094 44.15332031 C-112.44328125 43.48945312 -111.64535156 42.82558594 -110.82324219 42.14160156 C-79.68055186 16.28249981 -40.04100007 2.73918824 0 0 Z " fill="#000000" transform="translate(230.2412109375,63.8466796875)"/>
<path d="M0 0 C38.34980135 12.8653921 72.73318518 37.45602851 96.57666016 70.21826172 C96.98980469 70.78174316 97.40294922 71.34522461 97.82861328 71.92578125 C120.24842627 102.89958786 132.22857576 139.29343779 134.38916016 177.28076172 C134.45458008 178.28155762 134.52 179.28235352 134.58740234 180.31347656 C135.00445935 189.28324641 135.00445935 189.28324641 131.57666016 193.21826172 C128.51688439 194.7481496 125.31769596 194.36625789 121.96011353 194.36543274 C121.16493423 194.36910943 120.36975493 194.37278612 119.55047929 194.37657422 C116.87121153 194.38763605 114.19198252 194.39145909 111.51269531 194.39526367 C109.59773128 194.40152634 107.68276847 194.40817296 105.76780701 194.41517639 C100.55501743 194.43260219 95.34223703 194.44314204 90.12942553 194.45138192 C86.87533819 194.45652776 83.62125373 194.46260362 80.36716843 194.46889305 C70.19355332 194.48794785 60.0199455 194.50217948 49.84631598 194.51050502 C38.08792574 194.52028544 26.32972335 194.54662479 14.57139933 194.58700591 C5.49196446 194.61712131 -3.58741641 194.63196946 -12.66690028 194.63528603 C-18.09413325 194.63764138 -23.52116561 194.64666484 -28.94834518 194.67174721 C-34.05206652 194.69495353 -39.15545407 194.69929124 -44.2592144 194.68898582 C-46.1345639 194.68848857 -48.00992942 194.69486461 -49.88522911 194.70854187 C-52.44149927 194.72614573 -54.99655652 194.7192122 -57.55282593 194.70600891 C-58.29854524 194.71697816 -59.04426455 194.7279474 -59.81258142 194.73924905 C-63.04019933 194.69887569 -65.12652353 194.40399119 -67.88350105 192.6788435 C-70.00803904 189.28394301 -69.97782243 186.24428245 -69.93127441 182.36120605 C-69.93751438 181.56431791 -69.94375434 180.76742976 -69.95018339 179.94639349 C-69.96615312 177.27304442 -69.95349392 174.60060212 -69.94091797 171.92724609 C-69.94633733 170.0119829 -69.95345894 168.09672388 -69.9621582 166.18147278 C-69.9804166 160.97695792 -69.9733136 155.77275971 -69.96064186 150.56823921 C-69.95052725 145.12617249 -69.95990326 139.6841332 -69.96618652 134.24206543 C-69.97346741 125.10240807 -69.96386362 115.96287993 -69.94482422 106.82324219 C-69.92305468 96.25082402 -69.93010574 85.67871438 -69.95212984 75.10630369 C-69.97027123 66.03529577 -69.97284832 56.96438082 -69.96237516 47.89336061 C-69.95613331 42.47289757 -69.95532363 37.05257963 -69.96852112 31.63212585 C-69.98006062 26.53653684 -69.97208858 21.44134629 -69.94894409 16.3458004 C-69.94364684 14.47369232 -69.94518808 12.60155081 -69.95399475 10.72945595 C-69.96489391 8.17762095 -69.95125569 5.6270701 -69.93127441 3.07531738 C-69.94465874 1.95878477 -69.94465874 1.95878477 -69.95831347 0.81969595 C-69.90560518 -2.64042625 -69.68329753 -4.45063785 -67.51659393 -7.21030426 C-53.42730924 -17.78731993 -15.55367547 -5.01741576 0 0 Z M-54.42333984 6.21826172 C-54.42333984 63.30826172 -54.42333984 120.39826172 -54.42333984 179.21826172 C2.66666016 179.21826172 59.75666016 179.21826172 118.57666016 179.21826172 C118.57666016 172.27454809 118.55723983 166.0796705 117.45166016 159.34326172 C117.32041748 158.54009521 117.1891748 157.73692871 117.05395508 156.90942383 C108.71400612 109.16770607 81.830114 66.84848956 42.58544922 38.62841797 C37.73400783 35.22273913 32.73006285 32.14961258 27.57666016 29.21826172 C26.46677734 28.56470703 25.35689453 27.91115234 24.21337891 27.23779297 C6.06367612 16.83310407 -14.25108945 11.09443094 -34.73583984 7.46826172 C-35.44063477 7.3402417 -36.14542969 7.21222168 -36.87158203 7.08032227 C-42.91945976 6.08381292 -48.07508207 6.21826172 -54.42333984 6.21826172 Z " fill="#000000" transform="translate(333.42333984375,42.78173828125)"/>
<path d="M0 0 C0.79688815 -0.00623996 1.59377629 -0.01247993 2.41481256 -0.01890898 C5.08816164 -0.0348787 7.76060394 -0.0222195 10.43395996 -0.00964355 C12.34922315 -0.01506291 14.26448217 -0.02218452 16.17973328 -0.03088379 C21.38424813 -0.04914218 26.58844635 -0.04203919 31.79296684 -0.02936745 C37.23503357 -0.01925283 42.67707286 -0.02862884 48.11914062 -0.03491211 C57.25879798 -0.042193 66.39832612 -0.0325892 75.53796387 -0.0135498 C86.11038204 0.00821973 96.68249167 0.00116868 107.25490236 -0.02085543 C116.32591029 -0.03899682 125.39682524 -0.04157391 134.46784544 -0.03110075 C139.88830849 -0.0248589 145.30862643 -0.02404922 150.7290802 -0.0372467 C155.82466922 -0.04878621 160.91985977 -0.04081417 166.01540565 -0.01766968 C167.88751373 -0.01237243 169.75965525 -0.01391366 171.63175011 -0.02272034 C174.1835851 -0.0336195 176.73413595 -0.01998128 179.28588867 0 C180.40242128 -0.01338433 180.40242128 -0.01338433 181.54151011 -0.02703905 C184.99741503 0.02560499 186.82483668 0.26347548 189.60166168 2.39740753 C191.43777278 4.91165247 191.65743039 6.21425697 191.67419434 9.30480957 C191.68241211 10.25122314 191.69062988 11.19763672 191.69909668 12.17272949 C191.67130127 13.69990601 191.67130127 13.69990601 191.64294434 15.25793457 C191.63085938 16.3205249 191.61877441 17.38311523 191.60632324 18.47790527 C190.44888422 66.10476742 168.89712293 111.96257649 135.95153809 145.83996582 C133.10598054 148.54304761 132.01193962 149.50793457 128.14294434 149.50793457 C123.55782076 148.17492932 120.73330272 145.51786806 117.46124268 142.19372559 C116.63509881 141.37248498 116.63509881 141.37248498 115.79226518 140.53465366 C113.95111166 138.70077515 112.12086827 136.85638543 110.29040527 135.01184082 C108.97174673 133.69397321 107.65243498 132.3767589 106.33251953 131.06015015 C102.75163293 127.48439765 99.1801527 123.89938256 95.61040783 120.31251144 C91.87634631 116.56341999 88.13418671 112.82242853 84.39300537 109.08044434 C78.11353818 102.79728481 71.83973591 96.508515 65.56970215 90.21594238 C57.51373587 82.13107706 49.44850532 74.05551997 41.38030624 65.98286438 C34.45157713 59.05015974 27.52711545 52.11319728 20.60333729 45.17554855 C18.37334469 42.94145261 16.14276228 40.70794684 13.91210175 38.47451782 C10.41305637 34.97058837 6.91667651 31.46402022 3.42237854 27.9553566 C2.13683959 26.66528563 0.8504487 25.37606297 -0.43683624 24.08773422 C-2.18798741 22.3348439 -3.93604156 20.57892421 -5.68328857 18.82214355 C-6.19835221 18.30794641 -6.71341584 17.79374926 -7.24408746 17.26397038 C-10.38318535 14.09897989 -11.7513131 12.64995422 -12.16955566 8.13293457 C-11.85705566 4.50793457 -11.85705566 4.50793457 -10.32859039 2.31311798 C-6.96108194 -0.14647538 -4.01396244 -0.048117 0 0 Z M14.14294434 15.50793457 C17.71929039 19.6803383 21.11136886 23.60110452 24.96456909 27.44981384 C25.88154572 28.36816513 26.79852234 29.28651642 27.74328613 30.23269653 C28.7415303 31.22740297 29.73982291 32.2220608 30.73815918 33.2166748 C31.80328507 34.28151818 32.86818993 35.34658269 33.93289185 36.41184998 C36.80624384 39.2854874 39.68265576 42.15604377 42.55964994 45.02603412 C45.57233837 48.0324466 48.58217147 51.04171496 51.59231567 54.05067444 C57.2849979 59.74025581 62.98022312 65.42728451 68.67637885 71.11338812 C75.16447231 77.59028166 81.64970676 84.07003469 88.13470912 90.55002296 C101.46762107 103.87249875 114.80409806 117.19140053 128.14294434 130.50793457 C155.69819021 102.98357708 173.48330538 63.43954613 176.14294434 24.50793457 C176.14294434 21.53793457 176.14294434 18.56793457 176.14294434 15.50793457 C122.68294434 15.50793457 69.22294434 15.50793457 14.14294434 15.50793457 Z " fill="#000000" transform="translate(289.8570556640625,251.4920654296875)"/>
<path d="M0 0 C0.13481759 2.93902349 0.23399416 5.87189559 0.3125 8.8125 C0.35439453 9.64587891 0.39628906 10.47925781 0.43945312 11.33789062 C0.48607013 13.65941768 0.48197528 15.72717271 0 18 C-2.45703125 19.94921875 -2.45703125 19.94921875 -5 21 C-6.52106634 24.04213267 -6.37429338 27.28047572 -6.5625 30.625 C-6.62727539 31.68460938 -6.62727539 31.68460938 -6.69335938 32.765625 C-6.79944751 34.51018537 -6.90022889 36.25506697 -7 38 C-7.556875 38.07476562 -8.11375 38.14953125 -8.6875 38.2265625 C-15.64431881 39.42520358 -20.78662872 42.14581191 -25.3515625 47.62109375 C-29.42852258 53.50188869 -29.64069802 59.06374747 -29 66 C-27.43948094 72.39117041 -24.43645237 76.08311176 -19.09765625 79.80859375 C-12.60646789 83.49539533 -6.70357379 83.36620333 0.60742188 83.47851562 C5.77687239 83.63727778 9.55678852 84.05871916 14 87 C16.34549674 90.51824511 16.57991403 91.85775694 16 96 C13.827365 98.57285724 12.02006162 100.48996919 9 102 C6.41096166 102.12036839 3.8441386 102.18558095 1.25390625 102.2109375 C-0.32097402 102.23900109 -1.89584369 102.26766552 -3.47070312 102.296875 C-5.95711019 102.33817989 -8.44331802 102.37506155 -10.92993164 102.40136719 C-13.32740305 102.42893799 -15.72396964 102.47480179 -18.12109375 102.5234375 C-18.86491806 102.52669037 -19.60874237 102.52994324 -20.37510681 102.53329468 C-24.40853211 102.62182997 -24.40853211 102.62182997 -27.96508789 104.34619141 C-29.63077032 107.00798258 -29.43671423 108.94300039 -29 112 C-27.31512919 114.49324548 -25.98079475 115.79961236 -22.98413086 116.41186523 C-20.5673158 116.61830631 -18.17516956 116.7083174 -15.75 116.75 C-14.48929688 116.79447266 -14.48929688 116.79447266 -13.203125 116.83984375 C-11.1359285 116.91031636 -9.06795967 116.95744939 -7 117 C-6.97421875 117.96421875 -6.9484375 118.9284375 -6.921875 119.921875 C-6.86515625 121.18515625 -6.8084375 122.4484375 -6.75 123.75 C-6.70359375 125.00296875 -6.6571875 126.2559375 -6.609375 127.546875 C-5.92210642 131.44139695 -5.07637286 132.61754583 -2 135 C-1.34 135.33 -0.68 135.66 0 136 C0 141.94 0 147.88 0 154 C-18.79850878 155.06809709 -35.66247256 148.05342998 -50 136 C-50.79792969 135.40058594 -51.59585938 134.80117188 -52.41796875 134.18359375 C-66.6322021 122.16278219 -75.57950645 102.88341805 -77.22314453 84.50488281 C-78.63214945 60.78589722 -71.67339104 40.96764705 -56 23 C-41.35807965 7.77443291 -21.11014925 -1.01059225 0 0 Z " fill="#F8C11E" transform="translate(108,206)"/>
<path d="M0 0 C1.74753067 -0.01073296 1.74753067 -0.01073296 3.53036499 -0.02168274 C4.80990555 -0.02437164 6.08944611 -0.02706055 7.40776062 -0.02983093 C8.76791049 -0.03609692 10.12805866 -0.04274384 11.48820496 -0.04974365 C15.95576285 -0.0707688 20.42332103 -0.08114394 24.89091492 -0.09111023 C26.42958786 -0.09515823 27.96826063 -0.09927517 29.50693321 -0.10346031 C36.7353572 -0.12250785 43.963771 -0.13674032 51.19221526 -0.14507228 C59.5337496 -0.15484632 67.8750187 -0.18117182 76.21645957 -0.22157317 C82.66581965 -0.2517376 89.11510369 -0.26654142 95.56453294 -0.26985329 C99.41571365 -0.27220325 103.26661085 -0.28115631 107.11771584 -0.30631447 C110.74163775 -0.3296065 114.3650897 -0.33382422 117.98906708 -0.32355309 C119.94885787 -0.32282223 121.90862486 -0.34190512 123.86831665 -0.36161804 C134.69057258 -0.29757965 134.69057258 -0.29757965 139.40263367 4.14717102 C142.36834369 8.59573605 141.73197004 12.78942717 141.71513367 18.02217102 C141.73930359 19.5129718 141.73930359 19.5129718 141.76396179 21.03388977 C141.77023455 30.40539226 141.77023455 30.40539226 138.40263367 34.14717102 C134.66735135 36.80835467 132.12074461 37.52303207 127.55802917 37.52812195 C126.38881424 37.53658142 125.2195993 37.54504089 124.01495361 37.55375671 C122.10407204 37.54464767 122.10407204 37.54464767 120.15458679 37.53535461 C118.79251688 37.53942198 117.43045027 37.54476479 116.06838989 37.55128479 C112.37623673 37.5649447 108.68433545 37.55966534 104.99217796 37.55014753 C101.12544967 37.54254403 97.25874271 37.54959847 93.39201355 37.55430603 C86.89893223 37.55976158 80.40595334 37.55257728 73.91288757 37.5382843 C66.40959544 37.52195812 58.90654787 37.52724677 51.40326166 37.54376352 C44.95725491 37.55738415 38.51132172 37.55929524 32.06530523 37.55144751 C28.21705969 37.54677415 24.36892905 37.54613682 20.52069092 37.55605698 C16.90251295 37.56473282 13.28464983 37.55869376 9.66650581 37.54137421 C7.7077795 37.53552512 5.74902651 37.54441967 3.79031372 37.55375671 C2.62109879 37.54529724 1.45188385 37.53683777 0.24723816 37.52812195 C-1.27365795 37.52642533 -1.27365795 37.52642533 -2.82527924 37.52469444 C-6.91176603 36.9681663 -9.55735207 35.23303476 -12.38056946 32.28535461 C-14.73644742 28.1455514 -14.10892986 23.42071072 -14.09736633 18.77217102 C-14.1399054 17.22916321 -14.1399054 17.22916321 -14.18330383 15.65498352 C-14.20510886 7.19463253 -14.20510886 7.19463253 -11.25361633 3.48310852 C-7.48754218 0.1711786 -4.84376519 0.02040438 0 0 Z " fill="#DFA924" transform="translate(44.59736633300781,374.8528289794922)"/>
<path d="M0 0 C1.19874756 -0.00860046 2.39749512 -0.01720093 3.63256836 -0.02606201 C4.9680324 -0.03049735 6.30349691 -0.03479569 7.63896179 -0.03897095 C9.03999536 -0.04687122 10.44102689 -0.05514012 11.84205627 -0.06375122 C16.44971267 -0.08997912 21.05737819 -0.10527918 25.66508484 -0.11953735 C27.25052077 -0.12489664 28.83595664 -0.13027414 30.42139244 -0.13566971 C37.01564019 -0.15729918 43.60988548 -0.17603647 50.20415974 -0.1872921 C59.65862604 -0.20353523 69.11268161 -0.23672062 78.56699306 -0.29369295 C85.21249187 -0.33237567 91.85788074 -0.35192276 98.5034892 -0.35721266 C102.47376833 -0.36086835 106.44360948 -0.37291184 110.41376686 -0.4053154 C114.14936261 -0.43536739 117.88425472 -0.4417187 121.61994553 -0.42993164 C123.64318165 -0.42960535 125.66637416 -0.45408997 127.68945312 -0.47930908 C137.57407053 -0.41119731 137.57407053 -0.41119731 140.6557312 2.56536865 C144.01240336 7.65081406 143.65489314 11.91843163 143.73930359 17.90390015 C143.79537781 19.38890015 143.79537781 19.38890015 143.85258484 20.90390015 C143.95146932 29.12229899 143.95146932 29.12229899 140.96586609 32.79452515 C137.29980925 36.11929741 135.65342018 36.28035797 130.80453491 36.29434204 C129.62261566 36.30005219 128.44069641 36.30576233 127.22296143 36.31164551 C125.91955307 36.31276337 124.61614471 36.31388123 123.27323914 36.31503296 C121.89191047 36.31966037 120.51058309 36.32468493 119.1292572 36.33007812 C115.37089581 36.3432124 111.61255228 36.3496492 107.85417151 36.35408878 C105.50663814 36.35701814 103.15910966 36.36112271 100.81157875 36.36559296 C93.46835403 36.37927122 86.1251405 36.388936 78.78190392 36.39279485 C70.30229778 36.39727515 61.82285287 36.41482031 53.34329575 36.44379544 C46.79121116 36.46540777 40.23917194 36.4754989 33.68705207 36.47683597 C29.77278788 36.47788442 25.85867517 36.48380043 21.94444847 36.50165558 C18.26150464 36.51812837 14.57882629 36.52029576 10.89585876 36.51151657 C8.90129671 36.51037841 6.90674351 36.52410232 4.91223145 36.53826904 C3.72185272 36.53269989 2.531474 36.52713074 1.30502319 36.52139282 C0.27244731 36.52285938 -0.76012857 36.52432594 -1.82399464 36.52583694 C-5.09618039 36.09298653 -6.97437529 35.07302969 -9.63569641 33.15390015 C-12.793964 28.60635303 -12.00411468 23.03114955 -12.01069641 17.71640015 C-12.0351886 16.67934937 -12.05968079 15.64229858 -12.08491516 14.57382202 C-12.11429184 6.95057443 -12.11429184 6.95057443 -9.73725891 2.9937439 C-6.36982008 0.04567012 -4.40646898 0.02347001 0 0 Z " fill="#E1AA24" transform="translate(42.63569641113281,426.8460998535156)"/>
<path d="M0 0 C3.78803424 1.1925293 4.52018454 1.65921999 6.375 5.0625 C6.66796875 8.515625 6.66796875 8.515625 6.5625 12.3125 C6.52189453 14.20742187 6.52189453 14.20742187 6.48046875 16.140625 C6.44566406 17.10484375 6.41085938 18.0690625 6.375 19.0625 C8.23705078 18.97548828 8.23705078 18.97548828 10.13671875 18.88671875 C11.77860814 18.83980762 13.42053832 18.79430891 15.0625 18.75 C15.87912109 18.70810547 16.69574219 18.66621094 17.53710938 18.62304688 C21.96699102 18.53337316 23.78823088 18.61414821 27.421875 21.390625 C29.375 24.0625 29.375 24.0625 29.9375 27.125 C29.22736327 30.83349181 28.39081956 31.80935287 25.375 34.0625 C22.55024314 34.43286159 20.1045312 34.57373842 17.28515625 34.53125 C16.11284706 34.54182434 16.11284706 34.54182434 14.91685486 34.5526123 C11.58217285 34.58206699 8.24807707 34.5654792 4.91333008 34.55322266 C2.47441871 34.55083835 0.03645043 34.57177874 -2.40234375 34.59375 C-3.52599586 34.57677063 -3.52599586 34.57677063 -4.67234802 34.55944824 C-8.37678111 34.59509593 -10.44600442 34.94774038 -13.59521484 36.96679688 C-15.75886449 39.20071178 -16.33041122 40.00565261 -16.3125 43.0625 C-16.33699219 43.7225 -16.36148438 44.3825 -16.38671875 45.0625 C-15.40442642 47.64164705 -13.90879743 48.86840709 -11.57543945 50.28564453 C-7.66471399 51.84327733 -3.52615453 51.52165118 0.625 51.5 C9.434455 51.69160868 16.16235466 52.41338389 22.96484375 58.48046875 C28.05137685 63.97982192 29.98620926 70.17497121 29.71875 77.5078125 C28.78216215 84.46836312 25.77737503 89.57378477 20.23828125 93.84375 C15.72819541 96.79374325 11.82953729 98.23004551 6.375 98.0625 C6.43300781 99.08730469 6.49101563 100.11210937 6.55078125 101.16796875 C6.59769957 102.52860011 6.64319752 103.88928096 6.6875 105.25 C6.72939453 105.92353516 6.77128906 106.59707031 6.81445312 107.29101562 C6.91034515 111.22258849 6.50301128 112.89588907 4.08203125 116.046875 C1.375 118.0625 1.375 118.0625 -2.25 118.125 C-6.03803424 116.9324707 -6.77018454 116.46578001 -8.625 113.0625 C-8.91796875 109.609375 -8.91796875 109.609375 -8.8125 105.8125 C-8.78542969 104.54921875 -8.75835937 103.2859375 -8.73046875 101.984375 C-8.69566406 101.02015625 -8.66085938 100.0559375 -8.625 99.0625 C-9.86636719 99.12050781 -11.10773438 99.17851562 -12.38671875 99.23828125 C-14.02860814 99.28519238 -15.67053832 99.33069109 -17.3125 99.375 C-18.12912109 99.41689453 -18.94574219 99.45878906 -19.78710938 99.50195312 C-24.21699102 99.59162684 -26.03823088 99.51085179 -29.671875 96.734375 C-31.625 94.0625 -31.625 94.0625 -32.1875 91 C-31.47865934 87.29827654 -30.62627743 86.31994498 -27.625 84.0625 C-24.87089979 83.67998088 -22.50401245 83.52773635 -19.75390625 83.55859375 C-18.61489113 83.5444619 -18.61489113 83.5444619 -17.4528656 83.53004456 C-15.0308017 83.50141687 -12.60971931 83.49831506 -10.1875 83.5 C-7.76899455 83.49638705 -5.3512031 83.48679124 -2.93284607 83.45924377 C-1.43038407 83.44251669 0.0723126 83.4395318 1.57481384 83.45225525 C6.01286599 83.40781654 8.84711765 82.80269606 12.375 80.0625 C13.79541821 77.22166359 13.68952272 75.20772722 13.375 72.0625 C11.14293569 69.21469381 9.82507001 68.21252334 6.375 67.0625 C4.9382319 66.97279978 3.49812997 66.93104889 2.05859375 66.921875 C-17.5531255 66.55793072 -17.5531255 66.55793072 -25.4765625 59.38671875 C-30.94021078 53.54760649 -32.12133937 47.66241421 -31.9296875 39.8046875 C-31.11210395 32.44643555 -27.18050973 28.02193858 -21.57421875 23.47265625 C-17.16113829 20.2800269 -13.97219168 19.99657572 -8.625 20.0625 C-8.68300781 19.03769531 -8.74101563 18.01289063 -8.80078125 16.95703125 C-8.84769957 15.59639989 -8.89319752 14.23571904 -8.9375 12.875 C-8.97939453 12.20146484 -9.02128906 11.52792969 -9.06445312 10.83398438 C-9.16034515 6.90241151 -8.75301128 5.22911093 -6.33203125 2.078125 C-3.625 0.0625 -3.625 0.0625 0 0 Z " fill="#020200" transform="translate(109.625,223.9375)"/>
<path d="M0 0 C1.03919334 -0.00021904 1.03919334 -0.00021904 2.09938049 -0.0004425 C4.3935965 0.00025521 6.68773173 0.00804097 8.98193359 0.01586914 C10.57091223 0.01773382 12.15989144 0.01915749 13.74887085 0.02015686 C17.93446434 0.02397808 22.12002323 0.033805 26.30560303 0.04486084 C31.32578822 0.05688025 36.34598497 0.06147909 41.36618042 0.06731415 C48.99593473 0.07701696 56.62561307 0.09617627 64.25537109 0.11352539 C64.25537109 11.99352539 64.25537109 23.87352539 64.25537109 36.11352539 C46.98630041 36.23385182 46.98630041 36.23385182 39.61669922 36.26000977 C34.59096762 36.2779329 29.56540023 36.29912039 24.53979492 36.33984375 C20.48734425 36.37247541 16.43506972 36.39038641 12.38249779 36.39815712 C10.83754899 36.40369382 9.29260966 36.41450573 7.74773598 36.43071556 C5.58120632 36.45254105 3.41540146 36.45549027 1.2487793 36.45410156 C0.01633987 36.4607634 -1.21609955 36.46742523 -2.48588562 36.47428894 C-6.03759042 36.08109269 -7.89912928 35.23068163 -10.74462891 33.11352539 C-13.9028965 28.56597827 -13.11304717 22.9907748 -13.11962891 17.67602539 C-13.14412109 16.63897461 -13.16861328 15.60192383 -13.19384766 14.53344727 C-13.22322433 6.91019967 -13.22322433 6.91019967 -10.84619141 2.95336914 C-7.18554494 -0.25139756 -4.8117764 -0.00850137 0 0 Z " fill="#F9C21E" transform="translate(43.74462890625,426.886474609375)"/>
<path d="M0 0 C1.05448082 -0.00131424 1.05448082 -0.00131424 2.13026428 -0.00265503 C4.44175411 0.00150789 6.75030007 0.04808824 9.0612793 0.09521484 C10.66837478 0.10641185 12.27549081 0.11494966 13.88261414 0.12094116 C18.10325113 0.14380049 22.32264019 0.20269663 26.54278564 0.26916504 C31.61118023 0.34147011 36.67999319 0.36890762 41.74875641 0.40388489 C49.44103698 0.46198015 57.13058204 0.57696612 64.82299805 0.68115234 C64.82299805 12.23115234 64.82299805 23.78115234 64.82299805 35.68115234 C47.05479551 35.9218052 47.05479551 35.9218052 39.47338867 35.97412109 C34.3025208 36.00997215 29.13229113 36.05235425 23.96191406 36.13378906 C19.79270126 36.19904337 15.62417285 36.23487083 11.45448875 36.2504158 C9.86480116 36.26149152 8.27515051 36.28312096 6.68575478 36.31553268 C4.45635069 36.35918238 2.22976351 36.36508373 0 36.36230469 C-1.26796921 36.37562836 -2.53593842 36.38895203 -3.84233093 36.40267944 C-8.52791101 35.3888544 -9.54319511 33.61700226 -12.17700195 29.68115234 C-12.82397461 26.98388672 -12.82397461 26.98388672 -12.84106445 24.27490234 C-12.84750977 23.28361328 -12.85395508 22.29232422 -12.8605957 21.27099609 C-12.84125977 20.25134766 -12.82192383 19.23169922 -12.80200195 18.18115234 C-12.82133789 17.16150391 -12.84067383 16.14185547 -12.8605957 15.09130859 C-12.85415039 14.10001953 -12.84770508 13.10873047 -12.84106445 12.08740234 C-12.8354248 11.1934375 -12.82978516 10.29947266 -12.82397461 9.37841797 C-11.09016236 2.15005657 -7.02477282 -0.07381548 0 0 Z " fill="#F9C21E" transform="translate(43.177001953125,375.31884765625)"/>
<path d="M0 0 C0 5.28 0 10.56 0 16 C-9 16.48 -9 16.48 -13.125 14.5 C-15.40468273 11.46042303 -15.69079802 9.63732716 -15.3984375 5.90625 C-15 4 -15 4 -13.6875 1.5 C-9.26196125 -0.97006814 -5.00172975 -0.23817761 0 0 Z " fill="#F7C11E" transform="translate(108,259)"/>
</svg>
